# File created by Blade
# Date/Time:  Thu Jan 22 16:00:44 2015
# Frame Rate: 120.000 fps
#------------------------------------------------------
:FULLY-SPECIFIED
:DEGREES
805
root 3.042594 36.002473 -4.119257 41.452021 -1.910239 0.088793
RightUpLeg -63.112004 0.833853 -4.958624
RightLeg 21.181219 -0.000000 -0.000000
RightFoot -7.786700 -16.649138 16.658868
RightToeBase 13.325643 -0.000000 -0.000000
LeftUpLeg -64.749080 1.560997 5.341166
LeftLeg 22.090708 -0.000000 -0.000000
LeftFoot -3.298172 15.062635 -19.637438
LeftToeBase 10.013668 -0.000000 -0.000000
Spine 83.715367 -2.465840 -8.999273
RightShoulder -14.090547 -63.633554 -27.480279
RightArm -17.734816 -3.576474 81.450418
RightForeArm 8.514110 0.000000 4.466338
RightHand -12.931461 -0.000000 44.698417
RightHandThumb1 -24.326973 -0.000000 -32.862282
LeftShoulder -99.092925 65.745972 -59.721053
LeftArm 6.183860 1.679360 -80.811612
LeftForeArm 36.524808 0.000000 -4.215374
LeftHand -14.779859 -0.000000 -52.841509
LeftHandThumb1 -26.253704 0.000000 33.147579
Head 8.283868 17.410214 -1.180020
806
root 3.043082 36.029424 -4.086773 40.552722 -1.910106 0.146089
RightUpLeg -62.039568 0.892237 -5.003953
RightLeg 20.945661 -0.000000 -0.000000
RightFoot -7.742800 -16.700441 16.670900
RightToeBase 13.305059 -0.000000 -0.000000
LeftUpLeg -63.615170 1.478655 5.264781
LeftLeg 21.710904 -0.000000 -0.000000
LeftFoot -3.133711 15.045280 -19.586895
LeftToeBase 10.001465 -0.000000 -0.000000
Spine 83.603537 -2.452899 -8.977779
RightShoulder -14.210687 -63.680183 -27.305599
RightArm -17.688184 -3.623597 81.447859
RightForeArm 8.406299 -0.000000 4.515713
RightHand -12.845447 -0.000000 44.704620
RightHandThumb1 -24.326973 -0.000000 -32.862282
LeftShoulder -99.165292 65.722481 -59.780728
LeftArm 6.245256 1.631861 -80.797460
LeftForeArm 36.550238 -0.000000 -4.185206
LeftHand -14.937354 -0.000000 -52.733091
LeftHandThumb1 -26.253704 0.000000 33.147579
Head 8.413670 17.352686 -1.104272
807
root 3.042489 36.056206 -4.051015 39.650945 -1.919914 0.227806
RightUpLeg -60.975666 0.946565 -5.073023
RightLeg 20.740396 -0.000000 -0.000000
RightFoot -7.706510 -16.751624 16.652461
RightToeBase 13.295165 -0.000000 -0.000000
LeftUpLeg -62.480131 1.439249 5.099504
LeftLeg 21.342794 -0.000000 -0.000000
LeftFoot -2.966300 14.957543 -19.526875
LeftToeBase 10.070763 -0.000000 -0.000000
Spine 83.448037 -2.437462 -9.003501
RightShoulder -14.234844 -63.736736 -27.198274
RightArm -17.637545 -3.596270 81.456303
RightForeArm 8.538278 -0.000000 4.552568
RightHand -12.905530 -0.000000 44.643121
RightHandThumb1 -24.326973 -0.000000 -32.862282
LeftShoulder -99.114542 65.726996 -59.711049
LeftArm 6.225118 1.607919 -80.829872
LeftForeArm 36.480353 -0.000000 -4.177675
LeftHand -14.925713 -0.000000 -52.739036
LeftHandThumb1 -26.253704 0.000000 33.147579
Head 8.583266 17.330186 -1.013233
808
root 3.040545 36.080057 -4.017673 38.773244 -1.885324 0.309464
RightUpLeg -59.950396 0.973002 -5.116673
RightLeg 20.566189 -0.000000 -0.000000
RightFoot -7.691115 -16.806493 16.640738
RightToeBase 13.274962 -0.000000 -0.000000
LeftUpLeg -61.405740 1.370605 4.969890
LeftLeg 21.020639 -0.000000 -0.000000
LeftFoot -2.809757 14.871987 -19.550175
LeftToeBase 10.075022 -0.000000 -0.000000
Spine 83.247826 -2.468868 -8.955574
RightShoulder -14.390269 -63.690767 -26.986760
RightArm -17.691550 -3.642741 81.434917
RightForeArm 8.612890 -0.000000 4.591200
RightHand -12.965408 -0.000000 44.667676
RightHandThumb1 -24.326973 -0.000000 -32.862282
LeftShoulder -99.238444 65.703677 -59.846507
LeftArm 6.337272 1.606712 -80.807558
LeftForeArm 36.462232 -0.000000 -4.167903
LeftHand -14.948549 0.000000 -52.753960
LeftHandThumb1 -26.253704 0.000000 33.147579
Head 8.729901 17.214675 -0.942114
809
root 3.037367 36.102246 -3.980139 37.898633 -1.841531 0.386112
RightUpLeg -58.928496 1.005101 -5.159326
RightLeg 20.408874 -0.000000 -0.000000
RightFoot -7.692807 -16.865709 16.641773
RightToeBase 13.259860 -0.000000 -0.000000
LeftUpLeg -60.341063 1.315350 4.829467
LeftLeg 20.731265 -0.000000 -0.000000
LeftFoot -2.640290 14.777996 -19.432357
LeftToeBase 9.946615 -0.000000 -0.000000
Spine 83.055835 -2.528070 -8.964787
RightShoulder -14.538399 -63.605552 -26.807856
RightArm -17.694376 -3.675549 81.402493
RightForeArm 8.571697 -0.000000 4.617858
RightHand -12.860297 -0.000000 44.497303
RightHandThumb1 -24.326973 -0.000000 -32.862282
LeftShoulder -98.526185 65.633565 -59.137226
LeftArm 6.077592 1.625426 -80.761323
LeftForeArm 36.365402 -0.000000 -4.153006
LeftHand -15.005352 -0.000000 -52.571177
LeftHandThumb1 -26.253704 0.000000 33.147579
Head 8.750934 17.170516 -0.936569
810
root 3.032880 36.129917 -3.930104 36.979342 -1.818201 0.485477
RightUpLeg -57.842022 1.050163 -5.232566
RightLeg 20.251686 -0.000000 -0.000000
RightFoot -7.711515 -16.903072 16.638252
RightToeBase 13.211940 -0.000000 -0.000000
LeftUpLeg -59.143409 1.242502 4.693670
LeftLeg 20.310005 -0.000000 -0.000000
LeftFoot -2.487234 14.704127 -19.385631
LeftToeBase 10.045373 -0.000000 -0.000000
Spine 82.851939 -2.523122 -8.879646
RightShoulder -14.745541 -63.670610 -26.525312
RightArm -17.649050 -3.580167 81.429238
RightForeArm 8.529217 -0.000000 4.631464
RightHand -12.795104 -0.000000 44.608800
RightHandThumb1 -24.326973 -0.000000 -32.862282
LeftShoulder -98.491931 65.716859 -59.117273
LeftArm 6.188268 1.602981 -80.821520
LeftForeArm 36.441928 -0.000000 -4.158230
LeftHand -14.908985 -0.000000 -52.568228
LeftHandThumb1 -26.253704 0.000000 33.147579
Head 8.953372 17.039779 -0.795805
811
root 3.031223 36.155334 -3.877280 36.036588 -1.756389 0.584379
RightUpLeg -56.771293 0.999206 -5.228158
RightLeg 20.187501 -0.000000 -0.000000
RightFoot -7.724712 -16.812162 16.693174
RightToeBase 13.154028 -0.000000 -0.000000
LeftUpLeg -57.957888 1.139390 4.573571
LeftLeg 19.951247 -0.000000 -0.000000
LeftFoot -2.369974 14.643454 -19.376940
LeftToeBase 10.097221 -0.000000 -0.000000
Spine 82.686870 -2.527684 -8.646981
RightShoulder -15.398406 -63.745619 -25.848998
RightArm -17.536604 -3.599847 81.403112
RightForeArm 8.767532 -0.000000 4.588723
RightHand -12.916640 -0.000000 44.625874
RightHandThumb1 -24.326973 -0.000000 -32.862282
LeftShoulder -98.147957 65.819343 -58.785779
LeftArm 6.230888 1.561888 -80.824928
LeftForeArm 36.603103 -0.000000 -4.067135
LeftHand -14.953435 -0.000000 -52.453024
LeftHandThumb1 -26.253704 0.000000 33.147579
Head 8.992904 16.679135 -0.718054
812
root 3.019551 36.185790 -3.816236 35.070707 -1.683549 0.627383
RightUpLeg -55.583448 1.106715 -5.288367
RightLeg 19.962615 -0.000000 -0.000000
RightFoot -7.736671 -16.879027 16.793576
RightToeBase 13.159985 -0.000000 -0.000000
LeftUpLeg -56.748052 1.109197 4.474001
LeftLeg 19.624977 -0.000000 -0.000000
LeftFoot -2.248118 14.514852 -19.362315
LeftToeBase 10.184973 -0.000000 -0.000000
Spine 82.513478 -2.548181 -8.607950
RightShoulder -15.359328 -63.701815 -25.808445
RightArm -17.526220 -3.660920 81.499985
RightForeArm 8.974841 -0.000000 4.651890
RightHand -12.957286 -0.000000 44.510166
RightHandThumb1 -24.326973 -0.000000 -32.862282
LeftShoulder -98.193054 65.774024 -58.863363
LeftArm 6.337069 1.536326 -80.862133
LeftForeArm 36.404794 -0.000000 -4.022772
LeftHand -15.015880 -0.000000 -52.607903
LeftHandThumb1 -26.253704 0.000000 33.147579
Head 9.170603 16.594933 -0.643248
813
root 3.023069 36.215133 -3.743783 34.069725 -1.623858 0.733118
RightUpLeg -54.403499 1.050658 -5.292485
RightLeg 19.858742 -0.000000 -0.000000
RightFoot -7.767971 -16.776974 16.850706
RightToeBase 13.182504 -0.000000 -0.000000
LeftUpLeg -55.480046 1.002420 4.326301
LeftLeg 19.288091 -0.000000 -0.000000
LeftFoot -2.123987 14.451079 -19.195652
LeftToeBase 10.166155 -0.000000 -0.000000
Spine 82.367561 -2.652244 -8.664401
RightShoulder -15.270804 -63.713565 -25.899513
RightArm -17.416715 -3.608235 81.602201
RightForeArm 8.971309 0.000000 4.739614
RightHand -12.950370 0.000000 44.332116
RightHandThumb1 -24.326973 -0.000000 -32.862282
LeftShoulder -98.326938 65.724685 -59.088914
LeftArm 6.505816 1.548000 -80.973778
LeftForeArm 36.417917 -0.000000 -4.020259
LeftHand -15.086895 -0.000000 -52.506570
LeftHandThumb1 -26.253704 0.000000 33.147579
Head 9.347353 16.542241 -0.716125
814
root 3.013117 36.247664 -3.667796 33.055567 -1.545431 0.816650
RightUpLeg -53.170510 1.100894 -5.339430
RightLeg 19.696203 -0.000000 -0.000000
RightFoot -7.823969 -16.808554 16.926747
RightToeBase 13.128388 -0.000000 -0.000000
LeftUpLeg -54.195579 0.961626 4.176752
LeftLeg 18.944152 -0.000000 -0.000000
LeftFoot -1.995713 14.332847 -19.176802
LeftToeBase 10.296674 -0.000000 -0.000000
Spine 82.220953 -2.684874 -8.676263
RightShoulder -15.190648 -63.656375 -25.916782
RightArm -17.359422 -3.614952 81.731404
RightForeArm 9.091992 -0.000000 4.771348
RightHand -12.932012 -0.000000 44.158387
RightHandThumb1 -24.326973 -0.000000 -32.862282
LeftShoulder -98.364730 65.681386 -59.142635
LeftArm 6.647973 1.564533 -81.075485
LeftForeArm 36.367775 -0.000000 -3.990170
LeftHand -15.089787 0.000000 -52.504808
LeftHandThumb1 -26.253704 0.000000 33.147579
Head 9.512787 16.477548 -0.642272
815
root 2.999485 36.279082 -3.590170 32.069530 -1.474028 0.870172
RightUpLeg -51.971600 1.161169 -5.345411
RightLeg 19.541887 -0.000000 -0.000000
RightFoot -7.860548 -16.822880 16.981978
RightToeBase 13.203358 -0.000000 -0.000000
LeftUpLeg -52.946005 0.956868 4.050039
LeftLeg 18.637923 -0.000000 -0.000000
LeftFoot -1.847231 14.167149 -19.120235
LeftToeBase 10.147291 -0.000000 -0.000000
Spine 82.011820 -2.746072 -8.753592
RightShoulder -14.932140 -63.541890 -26.152135
RightArm -17.326269 -3.600141 81.865423
RightForeArm 9.198506 -0.000000 4.821636
RightHand -12.949228 -0.000000 44.131584
RightHandThumb1 -24.326973 -0.000000 -32.862282
LeftShoulder -98.627619 65.574627 -59.464084
LeftArm 6.870313 1.622806 -81.192966
LeftForeArm 36.446279 -0.000000 -3.999928
LeftHand -15.063296 -0.000000 -52.442740
LeftHandThumb1 -26.253704 0.000000 33.147579
Head 9.755373 16.604688 -0.613646
816
root 2.989140 36.309642 -3.509619 31.072167 -1.365763 0.944603
RightUpLeg -50.761527 1.157100 -5.329589
RightLeg 19.411558 -0.000000 -0.000000
RightFoot -7.913510 -16.829091 16.997424
RightToeBase 13.207024 -0.000000 -0.000000
LeftUpLeg -51.692571 0.884963 3.946881
LeftLeg 18.335754 -0.000000 -0.000000
LeftFoot -1.774348 14.077759 -19.085234
LeftToeBase 10.345001 -0.000000 -0.000000
Spine 81.806865 -2.846087 -8.787928
RightShoulder -14.795175 -63.433763 -26.272530
RightArm -17.286649 -3.794763 82.040009
RightForeArm 9.479122 -0.000000 4.869020
RightHand -12.955143 -0.000000 44.026540
RightHandThumb1 -24.326973 -0.000000 -32.862282
LeftShoulder -98.786218 65.480429 -59.679212
LeftArm 7.088978 1.641670 -81.295123
LeftForeArm 36.395564 -0.000000 -4.010705
LeftHand -15.039593 -0.000000 -52.348151
LeftHandThumb1 -26.253704 0.000000 33.147579
Head 9.932542 16.577613 -0.677403
